PathFileType	4	(X/Y/Z)	70_2_62_p1_0-180.trc
DataRate	CameraRate	NumFrames	NumMarkers	Units	OrigDataRate	OrigDataStartFrame	OrigNumFrames
49.0	49.0	7	27	m	49.0	158	181
Frame#	Time	RHip			RKnee			RAnkle			RBigToe			RSmallToe			RHeel			LHip			LKnee			LAnkle			LBigToe			LSmallToe			LHeel			Neck			Head			Nose			RShoulder			RElbow			RWrist			RThumb			RIndex			RPinky			LShoulder			LElbow			LWrist			LThumb			LIndex			LPinky			
		X1	Y1	Z1	X2	Y2	Z2	X3	Y3	Z3	X4	Y4	Z4	X5	Y5	Z5	X6	Y6	Z6	X7	Y7	Z7	X8	Y8	Z8	X9	Y9	Z9	X10	Y10	Z10	X11	Y11	Z11	X12	Y12	Z12	X13	Y13	Z13	X14	Y14	Z14	X15	Y15	Z15	X16	Y16	Z16	X17	Y17	Z17	X18	Y18	Z18	X19	Y19	Z19	X20	Y20	Z20	X21	Y21	Z21	X22	Y22	Z22	X23	Y23	Z23	X24	Y24	Z24	X25	Y25	Z25	X26	Y26	Z26	X27	Y27	Z27	
158	3.2244897959183674	0.3727738846990182	0.5122088111444559	0.1287374662389994	0.3690241713624039	0.6628110161015499	0.5190166468183197	0.3671652546692357	0.7723622726176519	0.9412287416646696	0.32948873010374813	0.6368657669176931	1.005689939320051	0.3993868461117672	0.6250901317700115	0.9931746722762815	0.36986011101778976	0.8293656836709328	0.9737038263979788	0.12901260316317012	0.5789439488170214	0.14196511163051354	0.15621214202125885	0.7166115178445484	0.5519046977481614	0.17444322622703115	0.8212903116718246	0.957611888452135	0.1622436694129028	0.6399507271579556	0.9878038059601727	0.10425488719176347	0.7039630211423791	0.9851714604226635	0.20220177367842956	0.8461416936098831	0.9849485934935557	0.23550299161696725	0.3858732994168924	-0.4596347780393179	0.22249897458723888	0.30568071239851097	-0.7172426760681461	0.21005048472461907	0.24169995137626826	-0.554183261671893	0.4074379485856028	0.3715229623142397	-0.3616627784455671	0.472151339686907	0.44440191245458827	-0.08797716506081392	0.4021891053287383	0.3959945271497109	0.1329921033607176	0.31599577622759123	0.43052194466105187	0.23648938463482486	0.33604498092180946	0.43033890574207573	0.2480228443443324	0.38257988137086313	0.3962299843041518	0.25846329047139815	0.06165750703856908	0.4275074186882982	-0.3629684810522032	-0.004723685295745713	0.5046565602501341	-0.11473335034295351	0.06145036434593206	0.4874831796165816	0.12930699494873876	0.12219568350325409	0.44681162155500603	0.20728385686097955	0.11578395131052102	0.44423122014073924	0.2366892849383674	0.07690456273653755	0.5455691931367663	0.27291460586120725
159	3.2448979591836733	0.37047354336935506	0.5279607638362006	0.13392430654135748	0.3691197077385123	0.6627410713202057	0.5190146861355983	0.3671707689492647	0.7725481242528537	0.9412606041189225	0.3294744642797992	0.6368846828414165	1.005766503667736	0.39934649530018757	0.6250545316409306	0.9932456577024169	0.3630515382988606	0.8471283584024939	0.9796196519290641	0.1211409252742108	0.5941171966488303	0.14709108138059054	0.15234220411827284	0.728731471250129	0.5492684704700883	0.1775051494760714	0.804460779122148	0.9522843670902617	0.15763206720054873	0.6271862093861527	0.9831475682197438	0.10398278745664964	0.7046944874927158	0.9816954290634334	0.2015358617597617	0.8464287274864006	0.9891465716279347	0.23553997713432975	0.3853675659206594	-0.4629197645919934	0.22245154466324774	0.30579923033202266	-0.7173206834888763	0.21004826383108438	0.24167940846773397	-0.5542293284619494	0.40742266663814447	0.3716785053761388	-0.36162809633881365	0.46824420393055194	0.4441328136714729	-0.0879312373646001	0.40192232810261136	0.3959189843408593	0.13288958421789812	0.311381052625127	0.43041050216011173	0.2328740887145852	0.32852642091137657	0.42910955382832455	0.24502912452522035	0.37720188881509076	0.38664412595703074	0.2611345984242127	0.05876790795295538	0.44020717062606013	-0.36389443231186164	-0.0010518956588034208	0.5176286847254844	-0.11471040688973606	0.061327138926782446	0.487506681181679	0.12921973284355454	0.12646982338866136	0.448271451389559	0.20693422441683718	0.11579315662229957	0.4438931337856679	0.23650877447720267	0.07233749693064648	0.5319590454287152	0.27142642514008875
160	3.2653061224489797	0.3701394547553089	0.5290709714115237	0.1373702012671305	0.36858904487551913	0.6644545755083047	0.5234078033535636	0.36712060923777495	0.7723846217190706	0.9411104090821533	0.3294373407259254	0.6371977607163031	1.005848291599092	0.39763698518701307	0.6400708426682528	0.9986328830500665	0.3650966713710756	0.8287747129854546	0.9735026722337193	0.12112371780724826	0.5938017861372492	0.14685384739339627	0.15516666343913468	0.713603349190608	0.5461914434189349	0.17751715567639695	0.8043998773026981	0.952253271239664	0.16220876238435028	0.6399875975887115	0.9877131628745142	0.10412174645119432	0.7042927575588814	0.9852108788880946	0.20499640932761382	0.8272448329751736	0.9788712347818769	0.23553836227435382	0.3856224830264676	-0.4628749889962314	0.22662981581143865	0.31631149590332397	-0.71950441217729	0.2076833954623496	0.2539244133044125	-0.5560535703681674	0.4074513444453464	0.37182892637754916	-0.361612109179034	0.47193301032442625	0.445232864996215	-0.08423108988404111	0.39631825141473004	0.38424677214409053	0.1318852798871419	0.3104689538574497	0.43138941100779654	0.232156814330773	0.3244820055126668	0.42875482642853585	0.24484316072570125	0.37547032613965975	0.4012626196420872	0.2629552337012269	0.058753338466429404	0.44016873068933704	-0.36387032038681694	-0.0008617731377871575	0.5177830650481022	-0.11459175161996789	0.05833050376375186	0.5015587974600632	0.1305896104083718	0.12293217860674585	0.4482225705160072	0.2102577478270662	0.11626247628940159	0.4431313755557123	0.23335426629656886	0.07510221779996598	0.5196524143646051	0.27330831430966807
161	3.2857142857142856	0.37215287007385056	0.5146629296581481	0.13610488714903657	0.3686473212521263	0.6647230789451257	0.5237811318784104	0.3669174001750216	0.7732183659965133	0.9374124670517973	0.32945307110267724	0.6370075856114423	1.005853540353387	0.39621058139268994	0.6284717739366659	0.9991467158730974	0.3650933547822172	0.8284226034036176	0.9734931442902542	0.12858143293986263	0.5800594456803224	0.1455542062762456	0.15513258553021178	0.7134003688766164	0.5465509273728637	0.17753199799213243	0.8044514791673804	0.9521735693141943	0.15763182744704896	0.6273253376503583	0.9831795860907446	0.10408391629400833	0.7039313178854835	0.9851420596958964	0.20463330771629368	0.8270937517146814	0.9787710324101648	0.23528198281585824	0.38599079235832545	-0.4630055111823693	0.22664945356403138	0.3164106693349508	-0.7194703233545258	0.20767709830311507	0.2538711901860108	-0.5560639374799221	0.40747271716761035	0.37252676697184056	-0.3585760965597374	0.4663583842097972	0.4341229636375307	-0.08415187395224025	0.3961898666641627	0.38402516348782917	0.13188749492088717	0.31021916588602255	0.43201999097508936	0.23238974607924748	0.319217666862708	0.4182276848836503	0.24671225126218893	0.36968761976682313	0.40478353137069223	0.26029515018280225	0.05881740635289108	0.44052230140298143	-0.3639741407127376	-0.0011245774798232504	0.5181164841428154	-0.11128984566907205	0.05340174877409102	0.5005436399688823	0.13423131817530112	0.12713110044836406	0.44981985656686563	0.21056612105155406	0.11703144546147659	0.444800157044319	0.23703428990425687	0.07453915919723265	0.5201684941761177	0.27679136702984325
162	3.306122448979592	0.3724134750365588	0.5133928202332132	0.1327587745522635	0.36509265139222646	0.6800914586428597	0.527236438244831	0.3671831516282284	0.7725871352084775	0.9412158233673157	0.329424276047791	0.6371669396864341	1.0059193041564916	0.3944298060555015	0.6433268926126148	1.0045565627170838	0.3652422012856071	0.8290330958334166	0.9736551896652554	0.128550685057252	0.5798876844184246	0.14602675021716402	0.1512838947621816	0.7255647943789986	0.5441372385527132	0.1775390674634046	0.8044275830078202	0.9522230032509476	0.15760286535614057	0.6272655147695398	0.9831612350492304	0.10412840149044275	0.7040311924836711	0.985116370831785	0.19979878621861402	0.8263776572640563	0.9783920530292162	0.235460170211855	0.3863717109331114	-0.45953439104013893	0.22673916774262115	0.3163368401088964	-0.719305516423656	0.20772878517074683	0.25405517099843583	-0.5561364109653406	0.40735035485253474	0.37217007050304807	-0.3585550059077436	0.46634030836940543	0.4341351149017913	-0.08414625715450268	0.39584536122461966	0.3849795670867803	0.1357226263314741	0.3049197061058745	0.4198387615495199	0.23066642544272684	0.31874887773857485	0.4177128938133125	0.24683599276550708	0.36915662825853474	0.42292507248435723	0.2736290774953814	0.05871894913938481	0.44058724708130764	-0.3639086771324433	-0.0009490069356622747	0.5181274143415696	-0.11116313374696792	0.05399065421946112	0.5022651015782154	0.13807835482705474	0.1230035337232138	0.4484361228714178	0.21067521367848213	0.11711789669436622	0.4450231058393639	0.23783186046573207	0.07447321292447184	0.5197546629321342	0.27735002142245435
163	3.326530612244898	0.37001332353557276	0.5290289542328661	0.13779554084547774	0.3661762035855131	0.6822734328499015	0.5318274707157823	0.36721935278937956	0.7726376808651144	0.9412290490409047	0.3293958437530672	0.6372533840777433	1.005929254505185	0.394408945630696	0.6432932293649103	1.004522895747165	0.36992341642122606	0.8295475229473752	0.9737513352560389	0.1236937527226465	0.58017909939048	0.14955522935832313	0.15368990170383026	0.7111157137871588	0.5486870102938702	0.17751424607379182	0.8042658555294118	0.9522757437104306	0.15760205185042497	0.6273192233999155	0.9832069412897619	0.10411043413348112	0.7040724891633028	0.9851747842783627	0.20477342390691472	0.8270690228498007	0.9787607237379292	0.23551428632970467	0.3856984108760659	-0.4630570973664795	0.22680456111331698	0.316493871645905	-0.7193913410905732	0.20775019188399313	0.25438183549103577	-0.5562272508373459	0.4073082581382473	0.37211726478712603	-0.3585323854682246	0.4718822705758834	0.4453886657818085	-0.08402071269144777	0.39580483379041637	0.38508041240353397	0.13593282102755905	0.3027141127401587	0.4340635294573098	0.23226051805597447	0.3126972540746396	0.43033778986465604	0.24850304078759491	0.3632171017727702	0.4369874746036052	0.2761235096692105	0.05867293865863921	0.4405501399800632	-0.36389875401003885	0.002021976677779307	0.5054334753936096	-0.10806181831425712	0.054039659150085295	0.5023992182279952	0.1382713560228161	0.1281374544504029	0.4525549218420974	0.21484083584387642	0.11800151192436302	0.4469357417068298	0.24225260473987067	0.07538798150983667	0.5205066224144577	0.28547932100518264
164	3.3469387755102042	0.3696002063586017	0.5302612979510312	0.14130567795846943	0.36606175165437066	0.6822102018945557	0.5320640640015857	0.36730454237271015	0.7726449970206684	0.9412908945473285	0.3293564379458213	0.6372204342527928	1.0061065635055606	0.39897631997243493	0.6424077380975942	1.004186749713786	0.3654542201381827	0.8289540155051066	0.9737079052057201	0.12377102878866814	0.5800777898681051	0.14929722142467394	0.1552261808957004	0.7134533599689654	0.5463088739291454	0.17753009011261844	0.8043346145135521	0.9523906464023123	0.15755805971574818	0.6274900163876244	0.9833889940891158	0.10409091913815431	0.7045195699687014	0.9853667282942408	0.20470024515314528	0.8268886918072165	0.9787526029969306	0.23550491604281543	0.38576447446589807	-0.4629680250679108	0.23099304519844896	0.316918125130462	-0.7195707773309423	0.2074574462909873	0.2532482754503791	-0.5593692893641775	0.40731141711018876	0.3721329042522371	-0.35850062239318436	0.4660422001275948	0.43508912405168537	-0.08027140545227404	0.39580982987035224	0.38489871654220337	0.1359852589093413	0.3027177578247592	0.43467565752092535	0.22926920059401443	0.31239024524738046	0.4311358163552629	0.2484064861434452	0.36324757205263103	0.4370985810529934	0.2763438969015249	0.05868918965712207	0.44070971060248637	-0.36396378725849265	0.008789919197780601	0.505531761912515	-0.10500707407637323	0.05405102483308131	0.5025284657655614	0.1383998311859837	0.11969568395014495	0.43949993166266266	0.2133823380287631	0.113779089975489	0.4354832971034997	0.24128277942023327	0.080178109899528	0.5340444154144988	0.2907129033499029
